<?xml version="1.0" encoding="UTF-8" standalone="no"?>
<!-- Created with Inkscape (http://www.inkscape.org/) -->

<svg
   xmlns:dc="http://purl.org/dc/elements/1.1/"
   xmlns:cc="http://creativecommons.org/ns#"
   xmlns:rdf="http://www.w3.org/1999/02/22-rdf-syntax-ns#"
   xmlns:svg="http://www.w3.org/2000/svg"
   xmlns="http://www.w3.org/2000/svg"
   version="1.1"
   width="297.6377"
   height="105.30563"
   id="svg3012">
  <defs
     id="defs3014" />
  <metadata
     id="metadata3017">
    <rdf:RDF>
      <cc:Work
         rdf:about="">
        <dc:format>image/svg+xml</dc:format>
        <dc:type
           rdf:resource="http://purl.org/dc/dcmitype/StillImage" />
        <dc:title></dc:title>
      </cc:Work>
    </rdf:RDF>
  </metadata>
  <g
     transform="translate(-232.38863,-260.46122)"
     id="layer1">
    <path
       d="m 340.92176,285.3696 c 0.32625,-0.33875 0.61375,-0.72 0.85625,-1.1375 0.43,-0.74 0.68875,-1.5425 0.7725,-2.36875 1.49875,-1.1975 3.21,-2.125 5.07375,-2.73375 -0.0462,-0.2375 -0.1025,-0.47625 -0.165,-0.71375 -0.0487,-0.18875 -0.105,-0.3775 -0.165,-0.5625 0.51625,-0.1675 1.03375,-0.30875 1.56,-0.42625 0.32125,-0.0713 0.6425,-0.10625 0.96,-0.10625 1.6025,0 3.11,0.88375 3.87625,2.355 -0.33,-0.0225 -0.6675,-0.0438 -1.00125,-0.0438 -1.285,0 -2.5725,0.16875 -3.82875,0.50125 -1.865,0.495 -3.5825,1.32625 -5.08625,2.44375 -0.14875,0.80375 -0.43625,1.58625 -0.86,2.315 -0.3625,0.625 -0.81875,1.185 -1.3325,1.665 1.065,1.73375 2.48875,3.19875 4.1725,4.29125 -0.06,-0.5575 -0.0925,-1.11625 -0.09,-1.67375 0.425,0.33 0.87375,0.63 1.33875,0.9 -0.03,-0.4975 -0.0337,-0.99375 -0.01,-1.4875 0.79875,-0.96 1.9,-1.6825 3.2075,-1.99875 0.44875,-0.10875 0.89875,-0.1625 1.34125,-0.1675 1.17,0.02 2.225,0.825 2.5125,2.01375 0.34125,1.415 -0.52875,2.83875 -1.9425,3.18 -0.21,0.05 -0.42125,0.0763 -0.6275,0.0763 -0.22875,0 -0.4525,-0.0312 -0.6675,-0.0875 -0.48,-0.135 -0.9825,-0.20625 -1.49375,-0.20625 -0.43625,0 -0.88,0.0525 -1.3225,0.15875 -0.91625,0.22125 -1.725,0.6575 -2.38375,1.24125 0.0213,0.34375 0.0738,0.69375 0.1575,1.04125 0.31375,1.29875 1.0275,2.39375 1.97875,3.19125 0.32875,-0.0238 0.65875,-0.075 0.99,-0.155 0.925,-0.2225 1.74625,-0.65 2.43125,-1.22 0.64,-0.48375 1.38625,-0.84875 2.21625,-1.05 3.22375,-0.77875 5.20625,-4.025 4.4275,-7.24875 -0.0987,-0.40375 -0.235,-0.78875 -0.405,-1.15125 0.455,0.63625 0.80375,1.36375 1.01625,2.1625 0.6975,2.63 -0.28375,5.30875 -2.28125,6.90375 -0.43375,0.3475 -0.91375,0.64125 -1.4375,0.875 -1.8225,0.78125 -3.46375,1.89875 -4.8475,3.3 -1.945,1.7725 -2.9675,4.43375 -2.5825,7.15375 1.2325,-3.84875 4.34125,-7.01 8.53875,-8.12125 4.9075,-1.3 8.32875,-5.415 9,-10.14375 0.32375,1.67375 0.1575,3.44375 -0.5925,5.11375 -0.3775,0.84125 -0.7625,1.465 -1.35125,2.115 -1.66125,1.94 -3.70625,3.215 -6.07625,3.97125 -5.26375,1.67625 -8.64,6.55 -8.6775,11.79625 1.07875,-3.275 3.49625,-6.065 6.815,-7.52375 -0.55875,1.8425 -0.52875,3.85 0.14,5.71 0.65375,-3.73625 2.7325,-7.22375 6.07875,-9.5675 6.19125,-4.3375 8.0475,-12.595 4.5625,-19.1 1.93125,2.44375 3.09125,5.53 3.09125,8.88 0,3.285 -1.1125,6.31875 -2.9775,8.74 -0.1375,1.8225 -0.61875,3.55125 -1.3775,5.12 5.6,-1.95875 9.62625,-7.29375 9.62625,-13.55125 0,-5.8575 -3.52625,-10.905 -8.56875,-13.13375 6.225,1.80125 10.78875,7.5525 10.78875,14.34875 0,1.765 -0.3075,3.45875 -0.87125,5.03375 -0.30875,0.76625 -0.33875,1.6475 -0.0188,2.48125 0.0775,0.2025 0.1725,0.3925 0.28375,0.57 1.26375,-0.5625 2.39625,-1.39125 3.31375,-2.43375 2.36875,-2.68875 3.04875,-6.47125 1.765,-9.815 -2.2225,-5.79625 -6.845,-10.41375 -12.64625,-12.63 7.24,0.73875 13.12375,6.13 14.60375,13.1275 0.0738,-0.6 0.11125,-1.21125 0.11125,-1.83125 0,-8.20125 -6.67125,-14.8725 -14.8725,-14.8725 -0.6875,0 -1.365,0.0462 -2.0275,0.1375 1.30375,-0.3925 2.685,-0.605 4.11375,-0.605 5.39875,0 10.105,3.01375 12.5275,7.44625 -0.23125,-7.05375 -6.04125,-12.71875 -13.14875,-12.71875 -3.4675,0 -6.6275,1.35 -8.98125,3.5525 2.17125,-2.95125 5.66875,-4.87 9.6025,-4.87 1.3775,0 2.69875,0.235 3.93,0.66625 -1.89,-2.035 -4.58875,-3.31125 -7.57875,-3.31125 -5.7025,0 -10.3425,4.64 -10.3425,10.34375 0,1.235 0.22625,2.42375 0.625,3.52125 -1.27125,-0.44375 -2.62,-0.6775 -4,-0.6775 -1.04,0 -2.0975,0.13375 -3.15125,0.41375 -1.24375,0.32875 -2.39125,0.83875 -3.42375,1.4925 -0.43375,0.6725 -0.67375,1.46875 -0.67125,2.295 -0.28625,0.13 -0.56875,0.26875 -0.84875,0.415 -1.7725,0.92 -3.34625,2.115 -4.67875,3.52625 l 0.1075,0.43 c 0.225,0.84875 0.5275,1.66125 0.89875,2.42875"
       id="path3052"
       style="fill:#274479;fill-opacity:1;fill-rule:nonzero;stroke:none" />
    <path
       d="m 350.57201,273.22035 c -0.025,-0.3325 -0.0375,-0.6625 -0.0375,-1 0,-3.33 1.23875,-6.37875 3.27875,-8.705 -3.3125,0.965 -5.7425,4.03 -5.7425,7.65125 0,0.89 0.14625,1.74625 0.41625,2.54375 0.67375,-0.2175 1.37125,-0.38 2.085,-0.49"
       id="path3056"
       style="fill:#274479;fill-opacity:1;fill-rule:nonzero;stroke:none" />
    <path
       d="m 351.87863,273.07872 c 0.2575,-0.015 0.5175,-0.0225 0.78,-0.0225 0.755,0 1.495,0.0613 2.21625,0.18 -0.0863,-0.5675 -0.13,-1.14875 -0.13,-1.7425 0,-5.1275 3.3375,-9.49125 7.95625,-11.0325 -6.075,0.48 -10.8525,5.56125 -10.85375,11.75875 0,0.28875 0.01,0.57625 0.0312,0.85875"
       id="path3060"
       style="fill:#274479;fill-opacity:1;fill-rule:nonzero;stroke:none" />
    <path
       d="m 428.33338,297.61547 c -1.41625,-5.1025 -5.51375,-8.3075 -10.73,-8.36875 -4.3975,-0.0512 -7.30625,2.2575 -10.91125,2.14125 -2.325,-0.075 -4.98375,-1.92375 -4.72875,-5.04125 0.15375,-1.88125 2.505,-4.79375 7.2775,-5.005 1.665,-0.0725 3.06125,-0.41 4.52,-1.8375 1.56375,-1.5325 2.25875,-3.62375 2.08375,-5.65125 -0.3525,0.79125 -0.85375,1.5325 -1.51,2.175 -0.45625,0.44625 -0.96125,0.825 -1.5075,1.13125 1.8675,-2.55625 1.81625,-6.11125 -0.19625,-8.60125 0.7675,2.5525 0.145,5.4275 -1.88625,7.41875 -1.13375,1.11375 -2.445,2.195 -3.955,2.68625 -1.775,0.575 -3.0525,0.9 -4.32125,1.86125 -4.31,3.2625 -3.6175,6.96625 -2.88625,8.80375 0.65875,1.65375 2.3525,4.2525 6.62875,4.6325 4.43,0.3925 7.9975,-1.8425 11.08,-1.675 2.61125,0.14125 5.4675,1.2 7.25625,5.33 1.76375,4.06625 -0.115,7.505 -3.38875,7.23375 -2.845,-0.235 -3.56375,-0.77875 -4.935,-1.9475 -1.02375,-0.76125 -3.03,-1.815 -5.325,-2.72125 -2.31625,-0.915 -4.84375,-1.79375 -7.4425,-0.44125 -2.4775,1.29 -2.265,2.92 -6.42375,2.92 -5.69125,0 -12.24125,-3.45125 -16.0125,-6.7125 -0.34625,0.60125 -0.62125,0.96125 -0.62125,0.96125 -0.18125,0.24375 -0.3725,0.4825 -0.57625,0.71375 -1.0125,1.15 -2.28875,2.08625 -3.6875,2.70875 l -0.86625,0.38375 -0.4975,-0.805 c -0.1475,-0.24 -0.27375,-0.49125 -0.37375,-0.75375 -0.15375,-0.4025 -0.24875,-0.81875 -0.2825,-1.2375 -0.0575,-0.68125 0.28125,-2.83 0.28125,-2.83 -1.54,4.3125 -5.09,7.95625 -9.5825,9.52625 l -2.47625,0.86625 1.14,-2.3625 c 0.71875,-1.48875 1.1475,-3.08 1.2725,-4.73125 l 0.0212,-0.275 c -0.87,1.025 -1.87375,1.9425 -2.9925,2.72625 -2.99875,2.10125 -5,5.25 -5.6325,8.86625 l -0.70625,4.03375 -1.385,-3.8525 c -0.45375,-1.26375 -0.64625,-2.615 -0.5775,-3.9575 -1.29375,1.57625 -2.0725,3.58625 -2.0725,5.785 0,1.10375 0.1975,2.1625 0.55625,3.14125 -1.98125,1.0975 -4.26,1.7225 -6.685,1.7225 -1.39625,0 -2.745,-0.20625 -4.01625,-0.5925 -1.63375,1.26375 -3.68375,2.015 -5.90875,2.015 -0.335,0 -0.66375,-0.0175 -0.98875,-0.05 -0.26125,-0.0475 -0.53,-0.0713 -0.805,-0.0713 -2.5175,0 -4.5575,2.04125 -4.5575,4.55875 0,0.6925 0.155,1.355 0.4325,1.945 l 1.56875,0 c -0.04,-0.21625 -0.0612,-0.43875 -0.0612,-0.665 0,-1.79125 1.29,-3.295 3.00875,-3.6025 -1.0575,0.89125 -1.6775,2.20625 -1.6775,3.6025 0,0.225 0.0175,0.44625 0.0488,0.665 l 1.69,0 c -0.04,-0.21625 -0.0613,-0.43875 -0.0613,-0.665 0,-1.79125 1.28875,-3.295 3.0075,-3.6025 -1.0575,0.89125 -1.67625,2.20625 -1.67625,3.6025 0,0.225 0.0163,0.44625 0.0475,0.665 l 6.57875,0 c -0.0113,-0.14125 -0.0175,-0.2825 -0.0175,-0.42625 0,-3.11125 2.53125,-5.64375 5.64375,-5.64375 0.25875,0 0.51875,0.0213 0.7725,0.0625 0.33625,0.04 0.67875,0.06 1.02,0.06 1.9175,0 3.7325,-0.62125 5.24625,-1.79 l 0.4425,-0.34375 c 0,0 4.38,2.10375 10.92125,0.0712 -1.98125,1.0975 -4.25875,1.72125 -6.68375,1.72125 -1.3975,0 -2.745,-0.205 -4.01625,-0.59125 -1.63375,1.26375 -3.685,2.0175 -5.91,2.0175 -0.4025,0 -0.79875,-0.025 -1.1875,-0.0738 -0.1975,-0.0312 -0.39875,-0.0475 -0.605,-0.0475 -2.5175,0 -4.55875,2.04125 -4.55875,4.5575 0,0.69625 0.1575,1.36 0.435,1.95375 l 1.56,0 c -0.0413,-0.21625 -0.0625,-0.4375 -0.0625,-0.6625 0,-1.79125 1.28875,-3.295 3.00875,-3.6025 -1.0575,0.89 -1.6775,2.20625 -1.6775,3.6025 0,0.2225 0.0163,0.445 0.0475,0.6625 l 1.69,0 c -0.0387,-0.21625 -0.06,-0.4375 -0.06,-0.6625 0,-1.79125 1.28875,-3.295 3.0075,-3.6025 -1.0575,0.89 -1.6775,2.20625 -1.6775,3.6025 0,0.2225 0.0175,0.445 0.0475,0.6625 l 25.47375,0 c 0.70375,-0.68875 1.14125,-1.65 1.14125,-2.7125 0,-5.125 -2,-9.785 -5.2625,-13.2375 3.735,2.81375 6.00625,5.7175 6.92875,10.48375 0.2825,2.13375 2.1075,3.93875 4.3175,3.93875 l 5.8525,0 c 0.0987,-3.8525 3.045,-6.0775 6.92125,-6.0775 l 0.005,0.007 c 0.43125,0 0.85,0.0475 1.255,0.14125 2.05,0.52125 4.0775,0.19125 5.7775,-0.79375 -3.05625,-0.90375 -4.88125,-4.08125 -4.08875,-7.1975 0.0775,-0.3 0.175,-0.58875 0.2925,-0.86375 -0.445,2.98875 1.4475,5.9 4.4375,6.66 0.6525,0.1675 1.05625,0.83625 0.88875,1.49 -0.07,0.27375 -0.22625,0.5025 -0.435,0.665 -2.08,1.27875 -4.6425,1.73 -7.18875,1.08125 -0.3025,-0.0625 -0.6175,-0.0962 -0.93875,-0.0962 -2.5175,0 -4.55875,2.04125 -4.55875,4.5575 0,0.69625 0.1575,1.36 0.43375,1.95375 l 1.57875,0 c -0.0387,-0.21625 -0.06,-0.4375 -0.06,-0.6625 0,-1.79125 1.28875,-3.295 3.0075,-3.6025 -1.0575,0.89 -1.67625,2.20625 -1.67625,3.6025 0,0.2225 0.0163,0.445 0.0475,0.6625 l 1.69125,0 c -0.0412,-0.21625 -0.0625,-0.4375 -0.0625,-0.6625 0,-1.79125 1.29,-3.295 3.00875,-3.6025 -1.0575,0.89 -1.67625,2.20625 -1.67625,3.6025 0,0.2225 0.0162,0.445 0.0475,0.6625 l 9.61625,0 5.5575,0 0,0.001 10e-4,-0.001 6.75875,0 c 2.15,0 3.03,-1.52375 1.955,-3.385 l -2.28125,-3.95 c 1.23375,-1.93875 1.94875,-4.24125 1.94875,-6.70875 0,-1.26625 -0.18875,-2.48625 -0.5375,-3.63875 0.55125,0.0875 1.115,0.135 1.68875,0.135 5.92625,0 8.75875,-5.0375 7.175,-10.74625"
       id="path3064"
       style="fill:#274479;fill-opacity:1;fill-rule:nonzero;stroke:none" />
    <path
       d="m 232.38863,364.79497 0,-0.515 c 0.4075,-0.10125 0.67,-0.22625 0.79125,-0.37125 0.12125,-0.14625 0.18125,-0.3975 0.18125,-0.75375 l 0,-17.22125 c 0,-0.38125 -0.0637,-0.64625 -0.19125,-0.7925 -0.12625,-0.14625 -0.3875,-0.26375 -0.78125,-0.3525 l 0,-0.49625 13.865,0 c 2.31375,0 4.11625,0.46125 5.40625,1.38375 1.29,0.92125 1.93625,2.20125 1.93625,3.8425 0,0.94 -0.2325,1.76375 -0.69625,2.47 -0.465,0.705 -1.1675,1.3 -2.1075,1.78375 1.16875,0.585 2.03375,1.28375 2.59375,2.09625 0.55875,0.815 0.83875,1.78625 0.83875,2.91875 0,1.89375 -0.73375,3.37 -2.2025,4.425 -1.46875,1.055 -3.545,1.5825 -6.22625,1.5825 l -13.4075,0 z m 12.70125,-17.18375 -7.2275,0 0,4.48125 7.78,0 c 1.23375,0 2.14625,-0.18 2.7375,-0.5425 0.59125,-0.3625 0.88625,-0.91875 0.88625,-1.66875 0,-0.84 -0.30875,-1.42625 -0.92375,-1.76375 -0.6175,-0.3375 -1.70125,-0.50625 -3.2525,-0.50625 m -0.515,8.12375 -6.7125,0 0,5.58875 6.56,0 c 2.06,0 3.47375,-0.20875 4.24375,-0.62875 0.76875,-0.42 1.15375,-1.13875 1.15375,-2.15625 0,-0.97875 -0.41375,-1.69 -1.24,-2.13625 -0.82625,-0.44375 -2.16125,-0.6675 -4.005,-0.6675"
       id="path3068"
       style="fill:#274479;fill-opacity:1;fill-rule:nonzero;stroke:none" />
    <path
       d="m 253.82726,364.79497 0,-0.515 c 0.7125,-0.19125 1.29125,-0.775 1.73625,-1.755 0.0375,-0.0888 0.0762,-0.17125 0.11375,-0.2475 l 7.60875,-15.925 c 0.09,-0.1775 0.14375,-0.30125 0.1625,-0.3725 0.02,-0.0687 0.0288,-0.135 0.0288,-0.19875 0,-0.22875 -0.0925,-0.42625 -0.27625,-0.5925 -0.185,-0.165 -0.455,-0.29875 -0.81125,-0.4 l 0,-0.49625 6.9425,0 0,0.49625 c -0.38125,0.1275 -0.63875,0.25375 -0.7725,0.38125 -0.13375,0.1275 -0.2,0.28625 -0.2,0.47625 0,0.09 0.0163,0.19125 0.0475,0.30625 0.0312,0.11375 0.08,0.2475 0.14375,0.4 l 7.8575,15.94375 c 0.3425,0.68625 0.65,1.1675 0.92375,1.44 0.27375,0.27375 0.60125,0.455 0.9825,0.54375 l 0,0.515 -7.38,0 0,-0.515 c 0.355,-0.115 0.60625,-0.23875 0.75375,-0.37125 0.145,-0.13375 0.21875,-0.30875 0.21875,-0.525 0,-0.0888 -0.0125,-0.18375 -0.0387,-0.2875 -0.025,-0.10125 -0.0763,-0.24 -0.1525,-0.4175 l -1.4875,-3.14875 -9.4025,0 -1.41,3.14875 c -0.0775,0.1775 -0.1275,0.31625 -0.15375,0.4175 -0.025,0.10375 -0.0375,0.19875 -0.0375,0.2875 0,0.21625 0.0725,0.39125 0.21875,0.525 0.14625,0.1325 0.3975,0.25625 0.75375,0.37125 l 0,0.515 -6.37,0 z m 11.84375,-15.27625 -3.49,7.2275 6.8075,0 -3.3175,-7.2275 z"
       id="path3072"
       style="fill:#274479;fill-opacity:1;fill-rule:nonzero;stroke:none" />
    <path
       d="m 284.57076,350.8921 0,12.2625 c 0,0.39375 0.06,0.6575 0.18125,0.79125 0.12125,0.13375 0.3725,0.245 0.75375,0.33375 l 0,0.515 -5.855,0 0,-0.515 c 0.40625,-0.10125 0.67,-0.225 0.79125,-0.37125 0.12125,-0.14625 0.18125,-0.3975 0.18125,-0.75375 l 0,-17.22125 c 0,-0.38125 -0.0638,-0.645 -0.19125,-0.79125 -0.12625,-0.14625 -0.3875,-0.265 -0.78125,-0.3525 l 0,-0.4975 7.3425,0 0,0.4975 c -0.19125,0.0375 -0.3475,0.10625 -0.4675,0.21 -0.12125,0.10125 -0.1875,0.22875 -0.2,0.38 0,0.14125 0.0412,0.28 0.12375,0.42 0.0825,0.14 0.22625,0.31125 0.42875,0.515 l 11.1375,11.3275 0,-11.70875 c 0,-0.39375 -0.06,-0.65875 -0.18125,-0.79125 -0.12,-0.13375 -0.385,-0.25125 -0.79125,-0.3525 l 0,-0.4975 5.855,0 0,0.4975 c -0.39375,0.10125 -0.64875,0.22875 -0.7625,0.38 -0.115,0.1525 -0.1725,0.4075 -0.1725,0.76375 l 0,17.22125 c 0,0.38125 0.0613,0.645 0.18125,0.79125 0.12125,0.14625 0.3725,0.2575 0.75375,0.33375 l 0,0.515 -6.75125,0 0,-0.515 c 0.20375,-0.0375 0.3625,-0.1075 0.4775,-0.21 0.11375,-0.10125 0.17125,-0.22125 0.17125,-0.3625 0,-0.14 -0.0412,-0.2825 -0.12375,-0.42875 -0.0838,-0.14625 -0.22,-0.315 -0.41,-0.505 L 284.57076,350.8921 z"
       id="path3076"
       style="fill:#274479;fill-opacity:1;fill-rule:nonzero;stroke:none" />
    <path
       d="m 325.00038,357.7191 0.42,-0.26625 2.86,4.405 -0.43875,0.28625 c -0.1525,-0.1275 -0.26625,-0.21375 -0.3425,-0.2575 -0.0762,-0.045 -0.1525,-0.0675 -0.22875,-0.0675 -0.1525,0 -0.56625,0.20375 -1.24,0.61 -3.1275,1.83125 -6.15375,2.74625 -9.07875,2.74625 -3.4075,0 -6.23875,-1.0125 -8.49625,-3.04125 -2.25625,-2.02875 -3.385,-4.5675 -3.385,-7.61875 0,-3.115 1.1475,-5.67 3.4425,-7.6675 2.295,-1.995 5.28,-2.99375 8.95375,-2.99375 1.8825,0 3.78,0.30875 5.69375,0.925 1.91375,0.6175 2.9275,0.925 3.04125,0.925 0.1525,-0.0125 0.315,-0.0288 0.48625,-0.0487 0.17125,-0.0188 0.36625,-0.04 0.5825,-0.065 l 0.41875,0.26625 -2.87875,4.635 -0.4775,-0.2675 c 0.0125,-0.025 0.0213,-0.05 0.0288,-0.0763 0.006,-0.025 0.01,-0.0638 0.01,-0.115 0,-0.57125 -0.75375,-1.1625 -2.26,-1.77375 -1.5075,-0.61 -3.09375,-0.915 -4.75875,-0.915 -2.28875,0 -4.17,0.65875 -5.645,1.975 -1.475,1.315 -2.2125,2.97125 -2.2125,4.9675 0,2.12375 0.73375,3.83875 2.2025,5.15 1.46875,1.30875 3.39125,1.9625 5.76875,1.9625 1.7425,0 3.45875,-0.37625 5.15,-1.13375 1.69125,-0.75625 2.53625,-1.37 2.53625,-1.84125 0,-0.0888 -0.0125,-0.19375 -0.0375,-0.31375 -0.0263,-0.12125 -0.0638,-0.25125 -0.115,-0.39125"
       id="path3080"
       style="fill:#274479;fill-opacity:1;fill-rule:nonzero;stroke:none" />
    <path
       d="m 351.76188,344.2926 c 2.45375,0 4.35875,0.1775 5.7125,0.53375 1.35375,0.35625 2.5325,0.9475 3.5375,1.77375 1.055,0.865 1.865,1.98375 2.43125,3.35625 0.56625,1.37375 0.84875,2.89375 0.84875,4.55875 0,1.69125 -0.2825,3.2225 -0.84875,4.59625 -0.56625,1.3725 -1.37625,2.49875 -2.43125,3.37625 -1.005,0.82625 -2.18375,1.4175 -3.5375,1.7725 -1.35375,0.35625 -3.25875,0.535 -5.7125,0.535 l -10.12625,0 0,-0.515 c 0.40625,-0.1025 0.67,-0.22625 0.79125,-0.3725 0.12,-0.14625 0.18125,-0.3975 0.18125,-0.75375 l 0,-17.22125 c 0,-0.38 -0.0638,-0.645 -0.19125,-0.79125 -0.1275,-0.14625 -0.3875,-0.26375 -0.78125,-0.3525 l 0,-0.49625 10.12625,0 z m -4.6525,3.35625 0,13.71375 5.4725,0 c 2.33875,0 4.1125,-0.5825 5.32125,-1.74625 1.2075,-1.1625 1.81125,-2.87625 1.81125,-5.13875 0,-2.25 -0.6,-3.95125 -1.80125,-5.1025 -1.2025,-1.15 -2.97875,-1.72625 -5.33125,-1.72625 l -5.4725,0 z"
       id="path3084"
       style="fill:#274479;fill-opacity:1;fill-rule:nonzero;stroke:none" />
    <path
       d="m 385.15701,361.11435 c 0.40625,0 0.6775,-0.06 0.81,-0.18125 0.13375,-0.12125 0.24375,-0.3725 0.33375,-0.75375 l 0.495,0 0,5.5875 -0.495,0 c -0.09,-0.38125 -0.20625,-0.63875 -0.3525,-0.77125 -0.14625,-0.135 -0.41,-0.20125 -0.79125,-0.20125 l -18.6325,0 0,-0.515 c 0.40625,-0.10125 0.67,-0.225 0.79125,-0.37125 0.12,-0.14625 0.18,-0.3975 0.18,-0.75375 l 0,-17.22125 c 0,-0.38125 -0.0638,-0.645 -0.19,-0.79125 -0.1275,-0.14625 -0.3875,-0.265 -0.78125,-0.3525 l 0,-0.49625 18.40375,0 c 0.39375,0 0.65625,-0.0637 0.79125,-0.19125 0.13375,-0.12625 0.24375,-0.3875 0.33375,-0.7825 l 0.51375,0 0,5.57 -0.51375,0 c -0.0763,-0.36875 -0.185,-0.61625 -0.32375,-0.74375 -0.14125,-0.1275 -0.35625,-0.19125 -0.64875,-0.19125 l -0.1525,0 -12.93125,0 0,4.50125 8.23875,0 c 0.40625,0 0.675,-0.0575 0.8025,-0.1725 0.125,-0.11375 0.24,-0.3675 0.3425,-0.7625 l 0.495,0 0,5.1875 -0.495,0 c -0.0763,-0.36875 -0.18875,-0.61625 -0.33375,-0.74375 -0.14625,-0.12625 -0.4175,-0.19 -0.81125,-0.19 l -8.23875,0 0,5.34 13.16,0 z"
       id="path3088"
       style="fill:#274479;fill-opacity:1;fill-rule:nonzero;stroke:none" />
    <path
       d="m 401.63851,364.79497 0,-0.515 c 0.40625,-0.10125 0.67125,-0.22625 0.79125,-0.37125 0.12125,-0.14625 0.18125,-0.3975 0.18125,-0.75375 l 0,-17.22125 c 0,-0.38125 -0.0638,-0.64625 -0.19,-0.7925 -0.1275,-0.14625 -0.3875,-0.26375 -0.7825,-0.3525 l 0,-0.49625 13.865,0 c 2.31375,0 4.11625,0.46125 5.40625,1.38375 1.29,0.92125 1.93625,2.20125 1.93625,3.8425 0,0.94 -0.2325,1.76375 -0.69625,2.47 -0.46375,0.705 -1.16625,1.3 -2.1075,1.78375 1.17,0.585 2.03375,1.28375 2.59375,2.09625 0.56,0.815 0.83875,1.78625 0.83875,2.91875 0,1.89375 -0.73375,3.37 -2.2025,4.425 -1.46875,1.055 -3.54375,1.5825 -6.22625,1.5825 l -13.4075,0 z m 12.70125,-17.18375 -7.2275,0 0,4.48125 7.78125,0 c 1.2325,0 2.145,-0.18 2.73625,-0.5425 0.59125,-0.3625 0.8875,-0.91875 0.8875,-1.66875 0,-0.84 -0.30875,-1.42625 -0.92625,-1.76375 -0.61625,-0.3375 -1.7,-0.50625 -3.25125,-0.50625 m -0.51375,8.12375 -6.71375,0 0,5.58875 6.56,0 c 2.06,0 3.47375,-0.20875 4.24375,-0.62875 0.77,-0.42 1.15375,-1.13875 1.15375,-2.15625 0,-0.97875 -0.41375,-1.69 -1.24,-2.13625 -0.82625,-0.44375 -2.16125,-0.6675 -4.00375,-0.6675"
       id="path3092"
       style="fill:#274479;fill-opacity:1;fill-rule:nonzero;stroke:none" />
    <path
       d="m 431.67376,363.15447 c 0,0.39375 0.06,0.6575 0.18125,0.79125 0.12125,0.13375 0.37125,0.25125 0.75375,0.3525 l 0,0.49625 -6.40875,0 0,-0.515 c 0.395,-0.0888 0.64875,-0.20625 0.7625,-0.3525 0.115,-0.14625 0.1725,-0.40375 0.1725,-0.7725 l 0,-17.22125 c 0,-0.39375 -0.06,-0.66375 -0.18125,-0.81 -0.12125,-0.14625 -0.3725,-0.25875 -0.75375,-0.33375 l 0,-0.49625 6.40875,0 0,0.49625 c -0.37,0.075 -0.6175,0.1875 -0.745,0.33375 -0.12625,0.14625 -0.19,0.41625 -0.19,0.81 l 0,17.22125 z"
       id="path3096"
       style="fill:#274479;fill-opacity:1;fill-rule:nonzero;stroke:none" />
    <path
       d="m 440.91601,350.8921 0,12.2625 c 0,0.39375 0.06,0.6575 0.18125,0.79125 0.12125,0.13375 0.37125,0.245 0.75375,0.33375 l 0,0.515 -5.85625,0 0,-0.515 c 0.4075,-0.10125 0.67125,-0.225 0.7925,-0.37125 0.12,-0.14625 0.18125,-0.3975 0.18125,-0.75375 l 0,-17.22125 c 0,-0.38125 -0.0637,-0.645 -0.19125,-0.79125 -0.12625,-0.14625 -0.3875,-0.265 -0.7825,-0.3525 l 0,-0.4975 7.34375,0 0,0.4975 c -0.19125,0.0375 -0.3475,0.10625 -0.4675,0.21 -0.12125,0.10125 -0.1875,0.22875 -0.2,0.38 0,0.14125 0.04,0.28 0.12375,0.42 0.0825,0.14 0.225,0.31125 0.42875,0.515 l 11.1375,11.3275 0,-11.70875 c 0,-0.39375 -0.06,-0.65875 -0.18125,-0.79125 -0.12125,-0.13375 -0.385,-0.25125 -0.79125,-0.3525 l 0,-0.4975 5.855,0 0,0.4975 c -0.39375,0.10125 -0.64875,0.22875 -0.7625,0.38 -0.115,0.1525 -0.1725,0.4075 -0.1725,0.76375 l 0,17.22125 c 0,0.38125 0.0612,0.645 0.18125,0.79125 0.12125,0.14625 0.3725,0.2575 0.75375,0.33375 l 0,0.515 -6.75125,0 0,-0.515 c 0.20375,-0.0375 0.3625,-0.1075 0.47625,-0.21 0.115,-0.10125 0.1725,-0.22125 0.1725,-0.3625 0,-0.14 -0.0412,-0.2825 -0.12375,-0.42875 -0.0838,-0.14625 -0.22,-0.315 -0.41125,-0.505 l -11.69,-11.88125 z"
       id="path3100"
       style="fill:#274479;fill-opacity:1;fill-rule:nonzero;stroke:none" />
    <path
       d="m 460.56263,364.79497 0,-0.515 c 0.71125,-0.19125 1.29,-0.775 1.735,-1.755 0.0387,-0.0888 0.0775,-0.17125 0.115,-0.2475 l 7.60875,-15.925 c 0.09,-0.1775 0.14375,-0.30125 0.1625,-0.3725 0.0188,-0.0687 0.0288,-0.135 0.0288,-0.19875 0,-0.22875 -0.0925,-0.42625 -0.27625,-0.5925 -0.185,-0.165 -0.455,-0.29875 -0.81125,-0.4 l 0,-0.49625 6.9425,0 0,0.49625 c -0.38125,0.1275 -0.63875,0.25375 -0.7725,0.38125 -0.13375,0.1275 -0.2,0.28625 -0.2,0.47625 0,0.09 0.015,0.19125 0.0475,0.30625 0.0312,0.11375 0.08,0.2475 0.14375,0.4 l 7.85625,15.94375 c 0.34375,0.68625 0.65125,1.1675 0.925,1.44 0.27375,0.27375 0.60125,0.455 0.9825,0.54375 l 0,0.515 -7.38,0 0,-0.515 c 0.355,-0.115 0.60625,-0.23875 0.7525,-0.37125 0.14625,-0.13375 0.22,-0.30875 0.22,-0.525 0,-0.0888 -0.0125,-0.18375 -0.0387,-0.2875 -0.025,-0.10125 -0.0763,-0.24 -0.1525,-0.4175 l -1.4875,-3.14875 -9.4025,0 -1.41,3.14875 c -0.0775,0.1775 -0.1275,0.31625 -0.15375,0.4175 -0.025,0.10375 -0.0375,0.19875 -0.0375,0.2875 0,0.21625 0.0725,0.39125 0.21875,0.525 0.14625,0.1325 0.3975,0.25625 0.75375,0.37125 l 0,0.515 -6.37,0 z m 11.84375,-15.27625 -3.49125,7.2275 6.80875,0 -3.3175,-7.2275 z"
       id="path3104"
       style="fill:#274479;fill-opacity:1;fill-rule:nonzero;stroke:none" />
    <path
       d="m 486.38538,364.79497 0,-0.515 c 0.395,-0.0775 0.655,-0.19125 0.7825,-0.34375 0.12625,-0.1525 0.19,-0.4125 0.19,-0.78125 l 0,-17.22125 c 0,-0.35625 -0.06,-0.61125 -0.18,-0.76375 -0.12125,-0.1525 -0.385,-0.28 -0.7925,-0.38125 l 0,-0.49625 12.8925,0 c 2.67,0 4.7425,0.52125 6.2175,1.56375 1.47375,1.0425 2.2125,2.49875 2.2125,4.36875 0,1.5375 -0.455,2.80625 -1.36375,3.80375 -0.90875,0.9975 -2.31125,1.75125 -4.205,2.26 l 4.32875,6.04625 c 0.25375,0.3675 0.54375,0.69 0.8675,0.9625 0.32375,0.27375 0.8425,0.60125 1.55375,0.9825 l 0,0.515 -7.5325,0 0,-0.515 c 0.28,-0.0387 0.4925,-0.115 0.63875,-0.22875 0.14625,-0.115 0.21875,-0.25375 0.21875,-0.42 0,-0.0375 -0.05,-0.165 -0.1525,-0.38125 -0.10125,-0.21625 -0.20875,-0.40625 -0.32375,-0.57125 l -4.29125,-6.27625 -5.5875,0 0,6.7525 c 0,0.38 0.06,0.6425 0.18125,0.78125 0.12125,0.14 0.38375,0.255 0.79125,0.34375 l 0,0.515 -6.44625,0 z m 11.6525,-16.9925 -6.17875,0 0,5.62625 6.33125,0 c 1.86875,0 3.20125,-0.22625 3.99625,-0.6775 0.79375,-0.45125 1.19125,-1.19125 1.19125,-2.2225 0,-0.99 -0.3875,-1.69375 -1.16375,-2.10625 -0.775,-0.41375 -2.1675,-0.62 -4.17625,-0.62"
       id="path3108"
       style="fill:#274479;fill-opacity:1;fill-rule:nonzero;stroke:none" />
    <path
       d="m 509.60138,346.7526 c -0.445,-0.6225 -0.85625,-1.07375 -1.23,-1.35375 -0.37625,-0.28 -0.82375,-0.4825 -1.345,-0.61 l 0,-0.49625 8.315,0 0,0.49625 c -0.38125,0.1275 -0.63875,0.25375 -0.7725,0.38125 -0.1325,0.1275 -0.2,0.28625 -0.2,0.47625 0,0.14 0.0187,0.2775 0.0575,0.41 0.0375,0.13375 0.0825,0.2325 0.13375,0.29625 l 4.29,6.255 4.65375,-6.255 c 0.0763,-0.10125 0.13375,-0.2 0.1725,-0.29625 0.0375,-0.095 0.0562,-0.2 0.0562,-0.31375 0,-0.23 -0.0825,-0.42 -0.2475,-0.5725 -0.165,-0.1525 -0.42,-0.28 -0.7625,-0.38125 l 0,-0.49625 7.30375,0 0,0.49625 c -0.49625,0.1525 -0.95625,0.39 -1.3825,0.715 -0.42625,0.32375 -0.82375,0.74 -1.1925,1.24875 l -6.63625,9.13625 0,7.265 c 0,0.395 0.0575,0.65875 0.1725,0.7925 0.11375,0.1325 0.36125,0.245 0.7425,0.3325 l 0.0187,0.51625 -6.4075,0 0,-0.51625 c 0.38125,-0.0875 0.6325,-0.20625 0.75375,-0.35125 0.12,-0.1475 0.18125,-0.40375 0.18125,-0.77375 l 0,-6.96125 -6.675,-9.44 z"
       id="path3112"
       style="fill:#274479;fill-opacity:1;fill-rule:nonzero;stroke:none" />
  </g>
</svg>
